# xmcd CD database file
#
# Track frame offsets:
#	150
#	35890
#	73460
#	124562
#	157027
#
# Disc length: 2520 seconds
#
# Revision: 1
# Processed by: cddbd v1.5.2PL0 Copyright (c) Steve Scherf et al.
# Submitted via: CDex 1.70beta2
#
DISCID=4909d605
DTITLE=Albert Ayler - Prophecy
DYEAR=1964
DGENRE=Jazz
TTITLE0=Spirits
TTITLE1=Wizard
TTITLE2=Ghosts, First Variation
TTITLE3=Prophecy
TTITLE4=Ghosts, Second Variation
EXTD=YEAR: 1964
EXTT0=
EXTT1=
EXTT2=
EXTT3=
EXTT4=
PLAYORDER=
